<svg width="920" height="707" viewBox="0 0 920 707" fill="none" xmlns="http://www.w3.org/2000/svg">
<path d="M463.521 177.711C462.341 184.191 458.351 197.871 445.461 197.531C435.621 197.281 428.041 188.691 428.301 178.851L432.011 44.8506L433.221 1.15061C433.221 1.15061 439.601 -10.9394 445.951 43.2606V43.4606L463.591 171.981C463.874 173.882 463.851 175.817 463.521 177.711Z" fill="#D6D6E3"/>
<path d="M454.931 190.721H435.991V231.231H454.931V190.721Z" fill="#D6D6E3"/>
<path d="M452.891 221.611H438.321V239.391H452.891V221.611Z" fill="white"/>
<path d="M445.98 43.4706C439.35 41.5406 434.84 43.0106 431.98 44.8606L433.19 1.16061C433.19 1.16061 439.57 -10.9294 445.92 43.2706L445.98 43.4706Z" fill="#6C63FF"/>
<path d="M454.931 202.831V231.231H435.991V203.391C442.001 200.788 448.779 200.588 454.931 202.831Z" fill="#6C63FF"/>
<path d="M499.521 293.121C494.211 289.221 483.671 279.641 489.621 268.201C494.161 259.471 505.201 256.411 513.931 260.961L632.741 323.041L671.491 343.281C671.491 343.281 679.551 354.281 628.051 336.281L627.861 336.221L504.611 295.721C502.788 295.126 501.07 294.249 499.521 293.121Z" fill="#D6D6E3"/>
<path d="M463.494 244.928L455.191 261.952L491.602 279.71L499.904 262.687L463.494 244.928Z" fill="#E6E6E6"/>
<path d="M464.733 264.332L471.12 251.237L455.14 243.442L448.752 256.538L464.733 264.332Z" fill="white"/>
<path d="M627.861 336.211C632.501 331.091 633.161 326.391 632.741 323.041L671.491 343.281C671.491 343.281 679.551 354.281 628.051 336.281L627.861 336.211Z" fill="#6C63FF"/>
<path d="M480.721 274.391L455.191 261.941L463.491 244.941L488.491 257.141C488.2 263.672 485.42 269.844 480.721 274.391Z" fill="#6C63FF"/>
<path d="M391.401 293.121C396.711 289.221 407.251 279.641 401.301 268.201C396.761 259.471 385.721 256.411 376.991 260.961L258.181 323.041L219.431 343.281C219.431 343.281 211.371 354.281 262.871 336.281L263.061 336.221L386.311 295.731C388.134 295.133 389.851 294.252 391.401 293.121Z" fill="#D6D6E3"/>
<path d="M427.423 244.922L391.013 262.681L399.315 279.704L435.726 261.945L427.423 244.922Z" fill="#D6D6E3"/>
<path d="M442.169 256.532L435.782 243.437L419.802 251.231L426.189 264.326L442.169 256.532Z" fill="white"/>
<path d="M263.061 336.211C258.421 331.091 257.761 326.391 258.181 323.041L219.431 343.281C219.431 343.281 211.371 354.281 262.871 336.281L263.061 336.211Z" fill="#6C63FF"/>
<path d="M410.201 274.391L435.731 261.941L427.431 244.941L402.431 257.141C402.722 263.672 405.502 269.844 410.201 274.391Z" fill="#6C63FF"/>
<path d="M462.501 689.591H425.351L437.151 252.061H450.701L462.501 689.591Z" fill="#D6D6E3"/>
<path d="M445.461 259.051C452.298 259.051 457.841 253.508 457.841 246.671C457.841 239.833 452.298 234.291 445.461 234.291C438.624 234.291 433.081 239.833 433.081 246.671C433.081 253.508 438.624 259.051 445.461 259.051Z" fill="#6C63FF"/>
<path d="M738.601 154.651C737.811 159.031 735.111 168.281 726.391 168.051C723.18 167.903 720.158 166.492 717.982 164.127C715.806 161.762 714.652 158.633 714.771 155.421L717.291 64.7606L718.101 35.2006C718.101 35.2006 722.421 27.0206 726.721 63.6906V63.8206L738.651 150.821C738.835 152.092 738.818 153.384 738.601 154.651Z" fill="#D6D6E3"/>
<path d="M732.79 163.441H719.98V190.851H732.79V163.441Z" fill="#D6D6E3"/>
<path d="M731.411 184.341H721.551V196.371H731.411V184.341Z" fill="white"/>
<path d="M726.741 63.8306C722.251 62.5306 719.201 63.5206 717.291 64.7706L718.101 35.2106C718.101 35.2106 722.421 27.0306 726.721 63.7006L726.741 63.8306Z" fill="#6C63FF"/>
<path d="M732.79 171.631V190.831H719.98V172.021C724.043 170.254 728.628 170.115 732.79 171.631Z" fill="#6C63FF"/>
<path d="M762.931 232.721C759.341 230.091 752.201 223.611 756.231 215.871C757.771 213.048 760.364 210.949 763.446 210.031C766.528 209.113 769.847 209.451 772.681 210.971L853.061 252.971L879.271 266.661C879.271 266.661 884.731 274.131 849.891 261.921H849.761L766.371 234.531C765.135 234.113 763.974 233.502 762.931 232.721Z" fill="#D6D6E3"/>
<path d="M738.58 200.125L732.965 211.639L757.601 223.654L763.216 212.141L738.58 200.125Z" fill="#D6D6E3"/>
<path d="M739.432 213.254L743.754 204.392L732.941 199.118L728.619 207.98L739.432 213.254Z" fill="white"/>
<path d="M849.791 261.881C852.931 258.421 853.381 255.241 853.091 252.971L879.301 266.661C879.301 266.661 884.761 274.131 849.921 261.921L849.791 261.881Z" fill="#6C63FF"/>
<path d="M750.241 220.061L732.931 211.631L738.541 200.121L755.471 208.371C755.282 212.792 753.411 216.973 750.241 220.061Z" fill="#6C63FF"/>
<path d="M689.811 232.721C693.401 230.091 700.541 223.611 696.511 215.871C694.971 213.048 692.378 210.949 689.296 210.031C686.214 209.113 682.895 209.451 680.061 210.971L599.681 252.971L573.471 266.661C573.471 266.661 568.011 274.131 602.851 261.921H602.981L686.371 234.531C687.606 234.113 688.767 233.502 689.811 232.721Z" fill="#D6D6E3"/>
<path d="M714.191 200.126L689.555 212.142L695.17 223.655L719.806 211.639L714.191 200.126Z" fill="#D6D6E3"/>
<path d="M724.159 207.973L719.837 199.111L709.024 204.384L713.347 213.246L724.159 207.973Z" fill="white"/>
<path d="M602.981 261.881C599.841 258.421 599.391 255.241 599.681 252.971L573.471 266.661C573.471 266.661 568.011 274.131 602.851 261.921L602.981 261.881Z" fill="#6C63FF"/>
<path d="M702.531 220.061L719.801 211.631L714.191 200.121L697.261 208.371C697.46 212.797 699.346 216.98 702.531 220.061Z" fill="#6C63FF"/>
<path d="M744.231 609.39L718.971 613.83L720.761 204.951H729.931L744.231 609.39Z" fill="#D6D6E3"/>
<path d="M726.391 209.681C731.019 209.681 734.771 205.929 734.771 201.301C734.771 196.672 731.019 192.921 726.391 192.921C721.763 192.921 718.011 196.672 718.011 201.301C718.011 205.929 721.763 209.681 726.391 209.681Z" fill="#6C63FF"/>
<path d="M165.441 154.651C164.651 159.031 161.951 168.281 153.231 168.051C150.021 167.903 147 166.492 144.825 164.126C142.651 161.761 141.499 158.632 141.621 155.421L144.131 64.7606L144.941 35.2006C144.941 35.2006 149.261 27.0206 153.561 63.6906V63.8206L165.501 150.821C165.677 152.093 165.657 153.385 165.441 154.651Z" fill="#D6D6E3"/>
<path d="M159.631 163.441H146.821V190.851H159.631V163.441Z" fill="#D6D6E3"/>
<path d="M158.251 184.341H148.391V196.371H158.251V184.341Z" fill="white"/>
<path d="M153.581 63.8306C149.101 62.5306 146.041 63.5206 144.131 64.7706L144.941 35.2106C144.941 35.2106 149.261 27.0306 153.561 63.7006L153.581 63.8306Z" fill="#6C63FF"/>
<path d="M159.631 171.631V190.831H146.821V172.021C150.884 170.254 155.469 170.115 159.631 171.631Z" fill="#6C63FF"/>
<path d="M189.801 232.721C186.211 230.091 179.081 223.611 183.111 215.871C184.649 213.049 187.241 210.949 190.321 210.031C193.401 209.113 196.719 209.451 199.551 210.971L279.931 252.971L306.151 266.661C306.151 266.661 311.601 274.131 276.761 261.921H276.631L193.251 234.531C192.012 234.113 190.848 233.502 189.801 232.721Z" fill="#D6D6E3"/>
<path d="M165.424 200.125L159.809 211.639L184.445 223.654L190.06 212.141L165.424 200.125Z" fill="#D6D6E3"/>
<path d="M166.268 213.253L170.59 204.391L159.777 199.117L155.455 207.979L166.268 213.253Z" fill="white"/>
<path d="M276.631 261.881C279.771 258.421 280.221 255.241 279.931 252.971L306.151 266.661C306.151 266.661 311.601 274.131 276.761 261.921L276.631 261.881Z" fill="#6C63FF"/>
<path d="M177.081 220.061L159.811 211.631L165.431 200.121L182.351 208.371C182.155 212.798 180.269 216.982 177.081 220.061Z" fill="#6C63FF"/>
<path d="M116.651 232.721C120.251 230.091 127.381 223.611 123.351 215.871C121.811 213.048 119.217 210.949 116.136 210.031C113.054 209.113 109.734 209.451 106.901 210.971L26.5209 252.971L0.310934 266.661C0.310934 266.661 -5.14908 274.131 29.6909 261.921H29.8209L113.211 234.531C114.446 234.113 115.607 233.502 116.651 232.721Z" fill="#D6D6E3"/>
<path d="M141.03 200.122L116.395 212.138L122.01 223.651L146.646 211.635L141.03 200.122Z" fill="#D6D6E3"/>
<path d="M151.008 207.98L146.686 199.118L135.873 204.391L140.195 213.253L151.008 207.98Z" fill="white"/>
<path d="M29.8209 261.881C26.6909 258.421 26.2409 255.241 26.5209 252.971L0.310934 266.661C0.310934 266.661 -5.14908 274.131 29.6909 261.921L29.8209 261.881Z" fill="#6C63FF"/>
<path d="M129.371 220.061L146.641 211.631L141.031 200.121L124.101 208.371C124.305 212.796 126.19 216.977 129.371 220.061Z" fill="#6C63FF"/>
<path d="M171.992 602.927H146.852L147.611 204.951H156.771L171.992 602.927Z" fill="#D6D6E3"/>
<path d="M153.231 209.681C157.859 209.681 161.611 205.929 161.611 201.301C161.611 196.672 157.859 192.921 153.231 192.921C148.602 192.921 144.851 196.672 144.851 201.301C144.851 205.929 148.602 209.681 153.231 209.681Z" fill="#6C63FF"/>
<path d="M915.867 634.421C915.867 634.421 924.71 690.498 858.167 690.502H105.101C34.1272 690.477 -106.787 535.553 176.683 594.421C412.023 643.292 894.892 556.489 909.802 594.421L915.867 634.421Z" fill="#F8F8F8"/>
<path d="M265.452 645C303.809 645 334.904 639.507 334.904 632.73C334.904 625.954 303.809 620.461 265.452 620.461C227.095 620.461 196 625.954 196 632.73C196 639.507 227.095 645 265.452 645Z" fill="#E6E6E6"/>
<path d="M289.274 582.877C326.727 582.877 357.089 552.46 357.089 514.939C357.089 477.417 326.727 447 289.274 447C251.821 447 221.459 477.417 221.459 514.939C221.459 552.46 251.821 582.877 289.274 582.877Z" fill="#3F3D56"/>
<path opacity="0.05" d="M289.315 570.91C320.261 570.91 345.349 545.823 345.349 514.876C345.349 483.929 320.261 458.842 289.315 458.842C258.368 458.842 233.281 483.929 233.281 514.876C233.281 545.823 258.368 570.91 289.315 570.91Z" fill="black"/>
<path opacity="0.05" d="M289.315 560.801C314.679 560.801 335.24 540.239 335.24 514.876C335.24 489.513 314.679 468.951 289.315 468.951C263.952 468.951 243.391 489.513 243.391 514.876C243.391 540.239 263.952 560.801 289.315 560.801Z" fill="black"/>
<path opacity="0.05" d="M289.315 547.803C307.5 547.803 322.242 533.061 322.242 514.876C322.242 496.691 307.5 481.949 289.315 481.949C271.13 481.949 256.388 496.691 256.388 514.876C256.388 533.061 271.13 547.803 289.315 547.803Z" fill="black"/>
<path d="M244.144 565.867C244.144 565.867 243.748 569.622 243.55 569.819C243.352 570.017 243.748 570.413 243.55 571.005C243.352 571.597 243.154 572.389 243.55 572.587C243.946 572.784 238.827 598.195 238.411 624.765C238.411 624.765 244.538 625.161 244.538 622.986C244.538 622.986 252.007 599.602 252.007 599.404C252.007 599.207 255.013 581.678 255.013 581.678L257.187 590.375L259.559 602.826C259.559 602.826 266.623 635.071 266.623 634.675C266.623 634.279 274.186 630.891 273.988 629.112C273.79 627.333 269.838 602.43 269.838 602.43L270.826 565.47L244.144 565.867Z" fill="#2F2E41"/>
<path d="M238.808 623.777C238.808 623.777 233.471 634.252 237.028 634.647C240.585 635.042 241.969 635.043 243.55 633.461C244.415 632.597 246.165 631.437 247.575 630.563C248.41 630.054 249.084 629.319 249.521 628.444C249.958 627.569 250.139 626.588 250.044 625.615C249.94 624.648 249.578 623.851 248.689 623.777C246.317 623.579 243.55 621.405 243.55 621.405L238.808 623.777Z" fill="#2F2E41"/>
<path d="M268.256 631.485C268.256 631.485 262.919 641.96 266.477 642.355C270.034 642.75 271.418 642.751 272.999 641.169C273.864 640.305 275.614 639.145 277.024 638.271C277.859 637.762 278.533 637.028 278.97 636.152C279.407 635.277 279.588 634.296 279.493 633.323C279.389 632.356 279.027 631.559 278.138 631.485C275.766 631.287 272.999 629.113 272.999 629.113L268.256 631.485Z" fill="#2F2E41"/>
<path d="M250.865 519.28C251.199 519.28 254.237 513.872 256.008 510.667C254.916 509.234 254.32 507.485 254.308 505.684C254.297 503.883 254.871 502.127 255.945 500.68C257.018 499.234 258.533 498.175 260.26 497.665C261.988 497.154 263.834 497.218 265.522 497.849C267.209 498.479 268.646 499.64 269.616 501.158C270.586 502.676 271.037 504.468 270.9 506.264C270.762 508.06 270.045 509.763 268.856 511.116C267.667 512.469 266.07 513.399 264.307 513.765C263.236 517.126 261.548 522.839 261.548 522.839C261.548 522.839 250.391 519.28 250.865 519.28Z" fill="#ED9DA0"/>
<path d="M267.466 566.855L267.301 566.494C259.657 566.756 243.753 566.756 243.453 566.756C243.057 566.756 244.441 563.199 243.255 563.001C242.068 562.803 241.475 541.853 241.475 541.853C241.475 541.853 241.673 533.503 241.475 528.958C241.277 524.413 252.148 514.183 253.334 513.985C254.343 513.817 263.058 518.503 265.653 519.914C265.934 519.997 266.209 520.096 266.478 520.211C268.257 521.003 269.641 545.51 269.641 545.51L273.593 568.437L268.257 569.82L267.466 566.855Z" fill="#E6E6E6"/>
<path d="M272.826 568.436C272.826 568.436 276.756 578.713 273.594 578.318C270.431 577.923 268.79 569.557 268.79 569.557L272.826 568.436Z" fill="#ED9DA0"/>
<path d="M270.888 503.184L270.915 502.549L272.178 502.864C272.164 502.66 272.107 502.461 272.009 502.282C271.911 502.102 271.776 501.946 271.612 501.824L272.957 501.75C271.828 500.146 270.386 498.787 268.717 497.756C267.049 496.725 265.188 496.042 263.249 495.75C260.339 495.329 257.099 495.939 255.103 498.098C254.135 499.146 253.527 500.478 253.095 501.837C252.298 504.34 252.136 507.324 253.797 509.358C255.486 511.426 258.435 511.831 261.093 512.087C262.028 512.177 263.007 512.26 263.874 511.898C263.971 510.904 263.844 509.902 263.503 508.963C263.36 508.673 263.292 508.352 263.305 508.028C263.423 507.238 264.477 507.038 265.27 507.146C266.062 507.253 267.014 507.416 267.535 506.809C267.893 506.392 267.872 505.783 267.92 505.234C268.048 503.74 270.875 503.497 270.888 503.184Z" fill="#2F2E41"/>
<path d="M321.846 634.419C327.193 634.419 331.527 630.085 331.527 624.738C331.527 619.392 327.193 615.058 321.846 615.058C316.5 615.058 312.166 619.392 312.166 624.738C312.166 630.085 316.5 634.419 321.846 634.419Z" fill="#6C63FF"/>
<path d="M198.477 624.134C198.476 622.971 198.769 621.826 199.329 620.807C199.888 619.788 200.696 618.926 201.678 618.303C201.138 617.701 200.753 616.978 200.555 616.194C200.358 615.41 200.354 614.59 200.544 613.805C200.734 613.019 201.112 612.291 201.646 611.685C202.18 611.078 202.853 610.61 203.608 610.322C202.936 609.932 202.412 609.331 202.116 608.612C201.819 607.893 201.769 607.097 201.971 606.346C202.173 605.596 202.617 604.933 203.234 604.46C203.851 603.987 204.606 603.731 205.384 603.731C206.161 603.731 206.917 603.987 207.534 604.46C208.151 604.933 208.594 605.596 208.797 606.346C208.999 607.097 208.948 607.893 208.652 608.612C208.356 609.331 207.831 609.932 207.159 610.322C207.914 610.61 208.587 611.078 209.121 611.685C209.655 612.291 210.034 613.019 210.224 613.805C210.414 614.59 210.41 615.41 210.212 616.194C210.015 616.978 209.629 617.701 209.089 618.303C210.103 618.947 210.931 619.843 211.492 620.904C212.053 621.965 212.329 623.154 212.29 624.354C212.252 625.554 211.902 626.723 211.275 627.746C210.647 628.77 209.764 629.612 208.712 630.19C207.66 630.768 206.475 631.062 205.275 631.043C204.075 631.023 202.9 630.692 201.867 630.081C200.834 629.469 199.978 628.599 199.383 627.556C198.789 626.514 198.476 625.334 198.477 624.134Z" fill="#6C63FF"/>
<path d="M97.1727 578.007C102.321 560.948 100.915 542.582 93.23 526.505C92.6966 525.385 91.0326 526.363 91.5645 527.479C97.2721 539.571 99.4075 553.042 97.7196 566.307C97.2299 570.096 96.4247 573.838 95.3121 577.494C95.254 577.737 95.2925 577.993 95.4197 578.209C95.5469 578.424 95.7527 578.582 95.9938 578.648C96.2349 578.715 96.4925 578.685 96.7122 578.566C96.9319 578.446 97.0966 578.246 97.1717 578.007L97.1727 578.007Z" fill="#D6D6E3"/>
<path d="M99.7848 548.374L106.134 539.991L105.309 539.767C105.423 542.62 104.994 545.469 104.044 548.161C103.223 550.481 101.806 553.506 98.9516 553.6C98.3833 553.618 98.3807 554.504 98.9516 554.485C101.988 554.386 103.66 551.597 104.646 549.073C105.794 546.11 106.322 542.943 106.195 539.768C106.192 539.672 106.158 539.58 106.099 539.505C106.039 539.43 105.957 539.376 105.865 539.351C105.773 539.326 105.675 539.331 105.586 539.366C105.497 539.401 105.421 539.463 105.37 539.544L99.0201 547.928C98.6749 548.382 99.4444 548.823 99.7844 548.374H99.7848Z" fill="#6C63FF"/>
<path d="M98.4146 545.052L94.6537 539.545C94.6078 539.472 94.5422 539.414 94.4646 539.378C94.3869 539.342 94.3005 539.328 94.2155 539.339C94.1305 539.35 94.0504 539.385 93.9847 539.441C93.919 539.496 93.8705 539.568 93.8448 539.65C93.0547 541.721 93.0258 544.004 93.7633 546.094C94.5008 548.184 95.9567 549.943 97.8712 551.059C97.9723 551.113 98.0904 551.126 98.2009 551.095C98.3113 551.064 98.4053 550.991 98.4632 550.892C98.5211 550.793 98.5383 550.676 98.5112 550.564C98.4842 550.453 98.4149 550.356 98.3181 550.295C96.5723 549.277 95.248 547.668 94.5845 545.759C93.9209 543.85 93.9618 541.767 94.6997 539.886L93.8908 539.991L97.6524 545.497C97.9682 545.966 98.7373 545.524 98.4146 545.052Z" fill="#6C63FF"/>
<path d="M92.2639 525.839C90.3674 525.746 88.3957 525.63 86.8083 524.468C86.2092 524.025 85.6989 523.473 85.3038 522.841C85.1089 522.538 84.9426 522.218 84.8073 521.884C84.6653 521.565 84.5796 521.224 84.554 520.875C84.6459 520.8 84.554 520.968 84.554 520.875L84.4157 520.985C84.3658 521.052 84.2931 521.098 84.2114 521.115C84.1297 521.132 84.0447 521.118 83.9725 521.076C83.8226 521.095 83.9258 520.843 83.8973 521.29C83.8141 521.771 83.8121 522.263 83.8914 522.744C83.9469 522.978 84.0503 523.197 84.1951 523.388C84.3399 523.58 84.5228 523.739 84.7324 523.855C84.9419 523.972 85.1734 524.044 85.4122 524.067C85.651 524.089 85.8919 524.062 86.1195 523.986C86.4425 523.865 86.755 523.718 87.0539 523.546L87.1395 523.503C87.2459 523.453 87.2547 523.449 87.1659 523.491C87.241 523.367 87.2811 523.611 87.159 523.471H87.2402L87.1423 523.465C87.0887 523.455 87.0381 523.433 86.9944 523.4C86.9506 523.367 86.9148 523.325 86.8897 523.277C86.8586 523.181 86.8535 523.166 86.8745 523.234C86.9053 523.277 86.9062 523.468 86.891 523.282C86.8961 523.345 86.8961 523.408 86.897 523.47C86.897 523.631 86.8871 523.791 86.8871 523.952C86.8671 524.353 86.9544 524.751 87.14 525.106C87.2864 525.346 87.4953 525.541 87.7442 525.672C87.9931 525.802 88.2727 525.862 88.5531 525.845C89.1828 525.816 89.5392 525.376 90.0713 525.137C90.1889 525.078 90.323 525.059 90.4525 525.084C90.582 525.109 90.6996 525.176 90.7866 525.275C90.8554 525.363 90.8988 525.468 90.9121 525.579C90.9253 525.69 90.9079 525.803 90.8618 525.905C90.7389 526.127 90.7063 526.388 90.7707 526.634C90.8351 526.879 90.9916 527.091 91.2078 527.224C91.4292 527.351 91.6915 527.386 91.9383 527.321C92.185 527.256 92.3965 527.097 92.5273 526.878C92.7424 526.494 92.8523 526.059 92.8458 525.618C92.8394 525.178 92.7168 524.747 92.4905 524.369C92.2642 523.991 91.9421 523.679 91.5568 523.465C91.1716 523.251 90.7367 523.143 90.2961 523.151C90.0023 523.155 89.7116 523.212 89.4378 523.318C89.1001 523.427 88.7895 523.606 88.5267 523.845C88.1842 524.269 88.4197 523.834 88.4357 523.92C88.4357 523.91 88.7783 524.111 88.8044 524.128L88.8383 524.216C88.8137 524.108 88.8092 524.111 88.8248 524.224C88.8248 524.132 88.8149 524.041 88.8149 523.948C88.8473 523.522 88.8156 523.093 88.7209 522.676C88.6412 522.41 88.4937 522.168 88.2929 521.976C88.092 521.784 87.8447 521.647 87.575 521.579C87.0561 521.497 86.5249 521.604 86.078 521.88C85.9075 521.98 85.7316 522.071 85.5513 522.152C85.71 522.092 85.4986 522.172 85.4762 522.162C85.3582 522.117 85.589 522.162 85.601 522.162C85.668 522.191 85.7748 522.333 85.7845 522.335C85.7417 522.326 85.7447 522.177 85.7432 522.15C85.7207 521.812 85.8341 521.473 85.8341 521.137C85.8463 520.817 85.7804 520.499 85.6422 520.21C85.5039 519.921 85.2974 519.669 85.0405 519.478C84.7653 519.275 84.4289 519.173 84.0875 519.189C83.7462 519.204 83.4205 519.337 83.1649 519.563C82.2916 520.367 82.648 521.68 83.0392 522.627C83.4734 523.704 84.1413 524.672 84.9946 525.461C85.8479 526.25 86.8655 526.839 87.9741 527.187C89.3724 527.566 90.8137 527.762 92.2622 527.771C92.518 527.771 92.7633 527.669 92.9442 527.489C93.1251 527.308 93.2267 527.062 93.2267 526.807C93.2267 526.551 93.1251 526.305 92.9442 526.125C92.7633 525.944 92.518 525.842 92.2622 525.842L92.2639 525.839Z" fill="#6C63FF"/>
<path d="M93.0839 526.787C93.2622 524.981 93.4693 523.063 94.6147 521.582C95.1146 520.944 95.7362 520.411 96.4436 520.015C96.7664 519.831 97.1072 519.679 97.4606 519.564C97.6584 519.5 97.8593 519.455 98.0625 519.401C98.4168 519.304 97.9957 519.39 98.1768 519.376C98.2283 519.371 98.2801 519.369 98.3318 519.37C98.4537 519.378 98.469 519.378 98.3776 519.37C98.5183 519.289 98.474 519.456 98.4115 519.37L98.3543 519.328C98.2835 519.26 98.2355 519.173 98.217 519.077C98.1985 518.981 98.2105 518.882 98.2513 518.793C98.24 518.67 98.4551 518.766 98.143 518.718C97.6374 518.597 97.1144 518.567 96.5984 518.63C96.3594 518.672 96.132 518.764 95.931 518.9C95.7301 519.036 95.5601 519.213 95.4323 519.42C95.3045 519.626 95.2217 519.857 95.1893 520.097C95.1569 520.338 95.1757 520.583 95.2444 520.815C95.365 521.161 95.508 521.499 95.6726 521.826C95.6101 521.676 95.6765 521.852 95.6885 521.892C95.7238 522.01 95.6621 522.056 95.702 521.919C95.7107 521.855 95.7295 521.792 95.7576 521.734C95.7878 521.686 95.8287 521.646 95.8771 521.617C95.989 521.576 95.9916 521.571 95.8848 521.602C95.8991 521.578 96.1105 521.602 95.8848 521.596C95.7938 521.596 95.7028 521.596 95.6116 521.59C95.4718 521.583 95.3333 521.568 95.1935 521.561C94.7883 521.523 94.3806 521.601 94.0184 521.787C93.7449 521.95 93.5283 522.193 93.3984 522.484C93.2684 522.775 93.2314 523.098 93.2924 523.411C93.4573 523.869 93.6665 524.309 93.917 524.727C93.954 524.841 93.9551 524.964 93.9201 525.08C93.8852 525.195 93.8158 525.297 93.7214 525.372C93.6269 525.446 93.5118 525.49 93.3916 525.498C93.2714 525.505 93.1518 525.476 93.0488 525.413C91.9641 524.807 90.9906 526.472 92.0754 527.079C92.465 527.313 92.9109 527.437 93.3654 527.437C93.8198 527.437 94.2657 527.313 94.6552 527.079C95.0447 526.845 95.3631 526.509 95.5762 526.107C95.7894 525.706 95.8892 525.254 95.8651 524.8C95.7802 524.212 95.5634 523.65 95.2309 523.157C95.2309 523.157 95.1277 522.993 95.1684 523.007C95.4189 523.087 95.0427 523.4 94.9916 523.453L94.9006 523.493C95.0075 523.469 95.0017 523.468 94.8832 523.489C94.9718 523.485 95.0592 523.489 95.1481 523.489C95.5896 523.549 96.0381 523.533 96.4744 523.443C96.7377 523.367 96.9771 523.225 97.1702 523.03C97.3633 522.836 97.5036 522.595 97.5779 522.331C97.6738 521.794 97.5745 521.24 97.2981 520.77C97.2681 520.704 97.1138 520.349 97.1604 520.478C97.1544 520.463 97.0799 520.22 97.0853 520.22C97.1816 520.22 96.9836 520.551 97.0994 520.317C97.2349 520.044 96.9677 520.602 96.9495 520.528C96.942 520.497 97.1294 520.507 97.1384 520.508C97.476 520.517 97.8064 520.637 98.1447 520.649C98.4737 520.672 98.8031 520.61 99.1019 520.471C99.4008 520.332 99.6593 520.118 99.8532 519.852C100.053 519.57 100.149 519.227 100.124 518.883C100.099 518.538 99.9556 518.213 99.7177 517.963C98.9302 517.159 97.649 517.442 96.7162 517.784C95.662 518.166 94.6979 518.761 93.884 519.533C92.9902 520.396 92.3115 521.458 91.9024 522.631C91.4856 523.981 91.2357 525.376 91.1582 526.786C91.1602 527.041 91.2624 527.285 91.4426 527.465C91.6229 527.645 91.8668 527.748 92.1217 527.75C92.3749 527.743 92.6159 527.64 92.7947 527.46C92.9735 527.281 93.0763 527.039 93.0817 526.786L93.0839 526.787Z" fill="#6C63FF"/>
<path d="M93.0013 524.77C92.1832 523.229 91.204 521.779 90.0803 520.445C89.8168 520.131 89.5452 519.824 89.2656 519.524C89.0068 519.285 88.7681 519.025 88.5518 518.747C88.5105 518.678 88.5201 518.642 88.4968 518.627C88.4798 518.56 88.4798 518.556 88.4968 518.614C88.5113 518.653 88.5113 518.695 88.4968 518.734C88.5088 518.809 88.4216 518.795 88.5051 518.721C88.3552 518.853 88.2336 518.976 87.9928 518.903C87.9024 518.875 87.8429 518.777 87.7731 518.74C87.7033 518.703 87.7919 518.71 87.7731 518.764C87.7354 518.875 87.6369 519.126 87.5759 519.274L89.4354 519.787C89.4602 519.669 89.5482 519.549 89.4354 519.687C89.4779 519.636 89.5242 519.59 89.5739 519.547C89.5117 519.597 89.5288 519.591 89.6251 519.528C89.4911 519.578 89.7673 519.485 89.7709 519.485C89.5844 519.525 90.0259 519.524 89.8649 519.49C90.0391 519.537 90.1994 519.624 90.3321 519.746C90.4648 519.868 90.566 520.02 90.6269 520.19C90.8244 520.714 90.91 521.274 90.878 521.833C90.8818 522.472 90.816 523.11 90.6817 523.735C90.6446 523.858 90.6326 523.988 90.6464 524.116C90.6601 524.244 90.6994 524.368 90.7619 524.481C90.8243 524.594 90.9087 524.693 91.0101 524.772C91.1114 524.852 91.2277 524.91 91.352 524.944C91.4763 524.978 91.6062 524.987 91.7339 524.97C91.8617 524.953 91.9848 524.911 92.0959 524.845C92.207 524.78 92.3039 524.693 92.381 524.59C92.458 524.487 92.5136 524.369 92.5444 524.244C92.9298 522.445 93.114 520.116 91.8788 518.595C91.6126 518.254 91.2678 517.983 90.8739 517.804C90.4799 517.625 90.0486 517.545 89.6168 517.569C89.1414 517.603 88.6888 517.785 88.3232 518.091C87.9576 518.397 87.6976 518.81 87.5802 519.271C87.512 519.518 87.5447 519.782 87.6709 520.004C87.7971 520.227 88.0065 520.39 88.2531 520.458C88.4997 520.526 88.7633 520.494 88.9859 520.368C89.2084 520.241 89.3718 520.032 89.4399 519.785C89.6012 519.473 89.6853 519.127 89.6853 518.776C89.6853 518.424 89.6012 518.078 89.4399 517.766C89.2726 517.477 89.0158 517.251 88.7084 517.121C88.401 516.991 88.0597 516.965 87.7361 517.046C87.4134 517.154 87.1308 517.356 86.9253 517.627C86.7199 517.898 86.6012 518.225 86.585 518.564C86.5827 518.873 86.6425 519.18 86.761 519.466C86.8795 519.751 87.0543 520.01 87.2749 520.227C88.0054 521.062 88.7847 521.835 89.4474 522.732C90.1516 523.686 90.7831 524.692 91.3364 525.741C91.4004 525.85 91.4852 525.946 91.5861 526.023C91.687 526.099 91.802 526.155 91.9246 526.187C92.0471 526.219 92.1747 526.227 92.3002 526.21C92.4257 526.193 92.5466 526.151 92.656 526.087C92.7653 526.023 92.861 525.938 92.9376 525.837C93.0142 525.736 93.0701 525.621 93.1023 525.499C93.1344 525.376 93.1421 525.249 93.1249 525.123C93.1077 524.998 93.0659 524.877 93.002 524.767L93.0013 524.77Z" fill="#6C63FF"/>
<path d="M107.335 623.957H88.8601L80.4586 580.423C80.3311 579.761 80.3514 579.08 80.5181 578.427C80.6847 577.774 80.9936 577.166 81.4227 576.646C81.8517 576.127 82.3903 575.708 82.9998 575.421C83.6094 575.134 84.2749 574.985 84.9488 574.985H111.247C111.921 574.985 112.586 575.134 113.196 575.421C113.806 575.708 114.344 576.127 114.773 576.646C115.202 577.166 115.511 577.774 115.678 578.427C115.845 579.08 115.865 579.761 115.737 580.423L107.335 623.957Z" fill="#090814"/>
<path d="M57.3404 586.783C58.2448 579.444 57.8802 572.003 56.2623 564.787C55.9924 563.576 54.132 564.089 54.4028 565.301C55.9687 572.351 56.31 579.618 55.4117 586.784C55.2588 588.012 57.1892 588.001 57.3404 586.783Z" fill="#ABABB7"/>
<path d="M59.9244 587.264C60.3587 581.144 61.8889 575.151 64.4421 569.572C64.9559 568.451 63.2942 567.47 62.7765 568.599C60.0739 574.483 58.4542 580.806 57.9951 587.264C57.9067 588.502 59.8362 588.497 59.9244 587.264Z" fill="#ABABB7"/>
<path d="M54.5269 587.066C53.9664 580.214 52.004 573.549 48.7612 567.486C48.1752 566.391 46.5097 567.364 47.0957 568.459C50.1822 574.22 52.0549 580.552 52.5982 587.065C52.6988 588.295 54.6292 588.303 54.5269 587.066Z" fill="#ABABB7"/>
<path d="M48.073 566.846C46.9723 566.444 46.849 564.767 46.5925 563.802C46.4165 563.062 46.1334 562.353 45.7521 561.695C45.3139 561.039 44.8139 560.427 44.2589 559.866C43.8044 559.45 43.4354 558.949 43.1725 558.391C43.0919 558.178 43.0698 557.946 43.1083 557.721C43.1447 557.624 43.1716 557.523 43.1888 557.42L43.2032 557.387C43.2638 557.269 43.1723 557.286 42.9285 557.439C42.9285 557.453 43.3948 557.712 43.4438 557.749C44.7759 558.791 45.7945 560.181 46.3877 561.765C46.9809 563.349 47.1257 565.066 46.8061 566.727C46.5565 567.939 48.4151 568.457 48.6656 567.241C49.0854 565.17 48.909 563.023 48.1569 561.048C47.4047 559.073 46.1078 557.353 44.4167 556.086C43.9798 555.725 43.4295 555.529 42.8625 555.532C42.5231 555.569 42.2021 555.705 41.9394 555.923C41.6768 556.141 41.484 556.432 41.3852 556.758C41.2205 557.2 41.1508 557.672 41.1805 558.143C41.2102 558.613 41.3387 559.073 41.5576 559.49C42.3594 561.087 44.0183 562.004 44.5726 563.762C45.1879 565.713 45.3564 567.906 47.5598 568.709C47.8068 568.775 48.0697 568.741 48.2917 568.614C48.5136 568.487 48.6769 568.278 48.7461 568.032C48.8086 567.785 48.773 567.524 48.6467 567.303C48.5205 567.082 48.3135 566.918 48.0691 566.846H48.073Z" fill="#D863FF"/>
<path d="M55.8052 564.269C54.6616 563.854 54.5511 562.303 54.2422 561.304C53.6735 559.813 52.8248 558.444 51.7417 557.273C51.3058 556.8 50.9954 556.226 50.839 555.602C50.8213 555.483 50.8183 555.361 50.83 555.241C50.842 555.125 50.9392 554.946 50.9225 554.84L50.9368 554.807C50.9975 554.689 50.906 554.707 50.6623 554.859C50.7186 554.881 50.7734 554.906 50.8264 554.934C50.9715 555.058 51.1559 555.152 51.3079 555.273C52.5316 556.258 53.477 557.544 54.0506 559.007C54.7066 560.638 54.8769 562.424 54.5411 564.149C54.2914 565.36 56.1501 565.879 56.4008 564.663C56.8117 562.64 56.6535 560.542 55.9438 558.603C55.2341 556.664 54.0008 554.96 52.3808 553.679C51.9901 553.336 51.5205 553.094 51.0139 552.976C50.6752 552.916 50.3263 552.964 50.0161 553.112C49.7059 553.261 49.4498 553.502 49.2837 553.804C49.0548 554.238 48.9232 554.718 48.898 555.209C48.8728 555.699 48.9546 556.19 49.1377 556.646C49.8201 558.397 51.5083 559.509 52.1889 561.251C52.5493 562.173 52.6989 563.16 53.0916 564.072C53.2901 564.552 53.5892 564.985 53.9688 565.34C54.3483 565.695 54.7995 565.965 55.2919 566.131C56.461 566.555 56.9643 564.692 55.8058 564.271L55.8052 564.269Z" fill="#D863FF"/>
<path d="M64.3867 568.643C63.6427 567.266 64.683 565.634 65.1147 564.313C65.5795 562.892 65.5097 561.406 65.8426 559.964C65.9341 559.377 66.2314 558.841 66.6815 558.453C66.8033 558.36 67.1915 558.255 66.8862 558.211C66.6605 558.179 66.771 558.217 66.8311 558.432C66.9196 558.761 66.98 559.096 67.0116 559.435C67.1581 560.924 66.9474 562.426 66.3969 563.816C65.8092 565.331 64.8183 566.656 63.5316 567.647C63.3167 567.782 63.1613 567.993 63.097 568.238C63.0327 568.483 63.0644 568.744 63.1856 568.967C63.3159 569.186 63.5277 569.346 63.7749 569.411C64.0221 569.475 64.2848 569.44 64.5062 569.312C66.0667 568.141 67.2935 566.581 68.0644 564.789C68.8354 562.996 69.1238 561.033 68.9009 559.094C68.7767 558.124 68.5999 556.828 67.5332 556.448C66.4914 556.075 65.4328 556.83 64.8151 557.627C63.662 559.114 63.8754 561.051 63.5249 562.795C63.0539 565.135 61.4314 567.234 62.7214 569.617C63.3119 570.709 64.9783 569.736 64.3869 568.643L64.3867 568.643Z" fill="#D863FF"/>
<path d="M56.2222 557.477C55.4225 556.011 56.2108 554.366 56.6089 552.895C56.853 551.437 57.1796 549.995 57.5869 548.574C57.7787 548.04 58.1268 547.576 58.5859 547.243C58.6775 547.185 58.7731 547.133 58.872 547.088C58.8621 547.023 58.5793 547.047 58.5891 547.026C58.6157 547.162 58.6548 547.295 58.7058 547.424C58.783 547.758 58.836 548.098 58.8645 548.441C58.9782 549.875 58.7625 551.316 58.2339 552.653C57.6462 554.168 56.6553 555.492 55.3686 556.484C55.1537 556.618 54.9982 556.83 54.9339 557.075C54.8696 557.32 54.9013 557.581 55.0226 557.803C55.1529 558.023 55.3644 558.182 55.6112 558.247C55.8581 558.312 56.1205 558.277 56.3417 558.149C57.8915 556.987 59.1125 555.442 59.8849 553.665C60.6574 551.889 60.9547 549.942 60.7477 548.016C60.6349 547.095 60.4987 545.892 59.5999 545.383C58.6138 544.823 57.4822 545.523 56.8029 546.251C55.4968 547.65 55.3435 549.599 54.9847 551.385C54.5031 553.786 53.2635 556.082 54.5565 558.457C55.1508 559.547 56.817 558.574 56.222 557.483L56.2222 557.477Z" fill="#D863FF"/>
<path d="M61.99 575.902C62.6829 574.774 64.0882 574.662 65.2789 574.45C66.0239 574.329 66.7563 574.141 67.4673 573.888C68.238 573.6 68.9816 573.236 69.761 572.968C70.4117 572.677 71.1412 572.613 71.8329 572.786C71.872 572.799 72.3075 573.038 72.324 573.03C72.3865 572.997 72.2187 572.777 72.233 572.776C72.224 572.776 72.1579 572.876 72.1412 572.886C71.847 573.089 71.6018 573.382 71.3083 573.594C70.1042 574.458 68.7116 575.023 67.2459 575.242C65.6216 575.495 63.9589 575.296 62.4405 574.666C62.2178 574.545 61.9574 574.513 61.7123 574.578C61.4672 574.642 61.2557 574.797 61.1209 575.012C60.9936 575.233 60.9586 575.495 61.0234 575.742C61.0882 575.989 61.2476 576.201 61.4672 576.331C63.3071 577.124 65.3259 577.408 67.3133 577.156C69.3007 576.903 71.184 576.122 72.767 574.894C73.5532 574.276 74.422 573.451 74.0945 572.348C73.7883 571.326 72.5148 570.875 71.5601 570.774C69.4833 570.553 67.6559 571.96 65.7013 572.407C63.6605 572.874 61.5404 572.955 60.3273 574.93C59.6751 575.99 61.3428 576.961 61.9928 575.903L61.99 575.902Z" fill="#D863FF"/>
<path d="M56.9252 564.169C56.1745 562.423 56.09 560.462 56.6878 558.657C57.2856 556.853 58.5242 555.33 60.1691 554.378C60.2438 554.335 60.319 554.293 60.3948 554.253C60.5363 554.229 60.5577 554.196 60.459 554.154C60.6162 553.623 60.398 554.04 60.3402 554.175C60.1652 554.583 59.9877 554.99 59.8075 555.395C59.4063 556.302 58.9936 557.204 58.5694 558.103C57.6967 559.952 56.7841 561.786 55.786 563.569C55.1796 564.654 56.8443 565.628 57.4515 564.543C58.4182 562.813 59.3044 561.042 60.1522 559.252C60.567 558.376 60.9718 557.496 61.3664 556.612C61.5394 556.223 61.7107 555.834 61.8803 555.443C62.1171 555.027 62.2782 554.571 62.356 554.098C62.3558 553.841 62.3012 553.586 62.1959 553.35C62.0907 553.115 61.937 552.904 61.745 552.732C61.553 552.56 61.3269 552.43 61.0814 552.351C60.836 552.273 60.5766 552.246 60.3203 552.274C59.3711 552.52 58.5026 553.01 57.8003 553.694C56.3796 554.88 55.33 556.449 54.7767 558.214C54.0898 560.506 54.2612 562.97 55.2589 565.145C55.3892 565.364 55.6007 565.524 55.8476 565.589C56.0946 565.653 56.3571 565.618 56.5784 565.491C56.7945 565.358 56.951 565.146 57.0155 564.901C57.0799 564.655 57.0473 564.394 56.9244 564.172L56.9252 564.169Z" fill="#D863FF"/>
<path d="M50.0262 573.625C48.6411 574.245 46.9516 573.06 45.7105 572.551C44.3233 571.982 42.8397 571.927 41.4226 571.474C40.8907 571.329 40.4254 571.004 40.106 570.555C40.0631 570.464 40.013 570.376 39.9562 570.293C40.005 570.305 39.7485 570.465 39.859 570.443C39.9575 570.423 40.0562 570.399 40.1561 570.381C40.5139 570.323 40.8757 570.294 41.238 570.293C42.7844 570.271 44.3114 570.639 45.6785 571.362C47.0456 572.085 48.209 573.14 49.0616 574.43C49.7312 575.47 51.4012 574.505 50.7272 573.457C49.663 571.817 48.1875 570.485 46.4479 569.594C44.7083 568.703 42.7654 568.283 40.813 568.377C39.8463 568.439 38.6638 568.546 38.1673 569.512C37.6603 570.499 38.399 571.706 39.1355 572.363C40.5486 573.624 42.4997 573.556 44.2201 574.06C45.3681 574.397 46.4016 575.022 47.5301 575.409C48.6559 575.828 49.9017 575.784 50.9952 575.287C51.2148 575.157 51.3742 574.946 51.439 574.699C51.5038 574.452 51.4688 574.189 51.3414 573.968C51.2082 573.751 50.9968 573.595 50.7511 573.53C50.5053 573.466 50.2442 573.498 50.0219 573.622L50.0262 573.625Z" fill="#D863FF"/>
<path d="M66.8866 624.893C66.7663 624.947 48.2941 624.947 48.4144 625C41.7772 614.005 39.2036 604.713 38.3515 597.911C38.1648 596.354 38.3098 594.775 38.7769 593.278C39.244 591.78 40.0227 590.399 41.0618 589.224C42.1008 588.049 43.3768 587.107 44.8058 586.461C46.2348 585.814 47.7844 585.477 49.3529 585.472L66.073 585.374C67.5352 585.364 68.9851 585.642 70.3399 586.192C71.6947 586.743 72.9278 587.554 73.9688 588.581C75.0097 589.608 75.8382 590.83 76.4069 592.177C76.9756 593.525 77.2733 594.971 77.2831 596.433C77.3167 604.701 75.4701 616.033 66.8866 624.893Z" fill="#BD6969"/>
<path d="M138.392 585.98C139.296 578.64 138.932 571.2 137.314 563.983C137.044 562.772 135.184 563.285 135.455 564.497C137.02 571.548 137.362 578.815 136.463 585.981C136.311 587.209 138.241 587.199 138.392 585.98Z" fill="#D6D6E3"/>
<path d="M140.975 586.461C141.409 580.34 142.939 574.348 145.493 568.769C146.006 567.649 144.345 566.667 143.827 567.795C141.124 573.679 139.505 580.002 139.046 586.461C138.958 587.699 140.887 587.694 140.975 586.461Z" fill="#D6D6E3"/>
<path d="M135.578 586.261C135.018 579.409 133.056 572.744 129.813 566.681C129.227 565.587 127.561 566.559 128.147 567.655C131.234 573.416 133.106 579.748 133.649 586.261C133.751 587.491 135.681 587.503 135.578 586.261Z" fill="#D6D6E3"/>
<path d="M129.126 566.042C128.025 565.64 127.902 563.963 127.645 562.997C127.469 562.258 127.186 561.548 126.805 560.891C126.367 560.235 125.867 559.622 125.312 559.061C124.857 558.645 124.488 558.144 124.225 557.587C124.145 557.373 124.123 557.142 124.161 556.917C124.198 556.819 124.225 556.718 124.242 556.616L124.256 556.582C124.317 556.464 124.225 556.482 123.982 556.634C123.982 556.649 124.448 556.907 124.497 556.944C125.829 557.987 126.848 559.376 127.441 560.96C128.034 562.544 128.179 564.261 127.859 565.922C127.61 567.133 129.469 567.652 129.719 566.436C130.139 564.365 129.963 562.217 129.211 560.242C128.458 558.267 127.161 556.546 125.47 555.279C125.033 554.918 124.482 554.722 123.915 554.726C123.576 554.763 123.255 554.899 122.992 555.117C122.73 555.335 122.537 555.625 122.438 555.952C122.273 556.394 122.203 556.866 122.233 557.337C122.263 557.808 122.392 558.267 122.611 558.685C123.413 560.282 125.072 561.199 125.626 562.956C126.241 564.908 126.41 567.1 128.613 567.904C128.86 567.97 129.123 567.935 129.345 567.809C129.567 567.682 129.73 567.473 129.8 567.227C129.862 566.98 129.827 566.719 129.7 566.497C129.574 566.276 129.367 566.113 129.123 566.041L129.126 566.042Z" fill="#6C63FF"/>
<path d="M136.857 563.465C135.714 563.05 135.603 561.499 135.294 560.5C134.726 559.009 133.878 557.641 132.795 556.469C132.359 555.996 132.048 555.422 131.892 554.799C131.874 554.679 131.871 554.558 131.883 554.437C131.895 554.321 131.992 554.142 131.975 554.037L131.99 554.004C132.05 553.886 131.959 553.903 131.715 554.055C131.771 554.077 131.826 554.102 131.879 554.131C132.024 554.255 132.209 554.348 132.361 554.469C133.584 555.454 134.53 556.741 135.103 558.203C135.759 559.834 135.93 561.62 135.594 563.345C135.344 564.556 137.203 565.075 137.453 563.859C137.864 561.836 137.706 559.738 136.996 557.799C136.287 555.86 135.053 554.156 133.433 552.876C133.043 552.532 132.573 552.29 132.067 552.172C131.728 552.112 131.379 552.16 131.069 552.308C130.759 552.457 130.502 552.699 130.336 553C130.108 553.435 129.976 553.914 129.951 554.405C129.926 554.896 130.007 555.386 130.191 555.842C130.873 557.593 132.561 558.706 133.242 560.447C133.602 561.37 133.752 562.357 134.144 563.268C134.343 563.749 134.642 564.181 135.022 564.536C135.401 564.892 135.852 565.161 136.345 565.327C137.513 565.749 138.014 563.886 136.857 563.465Z" fill="#6C63FF"/>
<path d="M145.441 567.843C144.697 566.466 145.737 564.834 146.169 563.513C146.634 562.092 146.564 560.606 146.897 559.164C146.988 558.577 147.285 558.041 147.735 557.652C147.857 557.56 148.245 557.455 147.94 557.412C147.714 557.38 147.825 557.418 147.885 557.633C147.974 557.962 148.034 558.297 148.066 558.636C148.212 560.124 148.002 561.626 147.451 563.017C146.864 564.531 145.873 565.856 144.586 566.847C144.372 566.982 144.216 567.193 144.152 567.439C144.088 567.684 144.119 567.944 144.24 568.167C144.371 568.386 144.582 568.546 144.829 568.611C145.076 568.675 145.339 568.64 145.56 568.513C147.121 567.341 148.348 565.782 149.119 563.989C149.89 562.197 150.178 560.233 149.955 558.295C149.831 557.324 149.654 556.028 148.588 555.648C147.546 555.276 146.487 556.031 145.87 556.828C144.717 558.314 144.93 560.251 144.58 561.996C144.109 564.335 142.486 566.434 143.776 568.817C144.365 569.911 146.031 568.933 145.441 567.843Z" fill="#6C63FF"/>
<path d="M137.277 556.674C136.477 555.208 137.265 553.563 137.663 552.092C137.907 550.634 138.234 549.192 138.641 547.771C138.833 547.237 139.181 546.773 139.64 546.44C139.732 546.382 139.827 546.33 139.926 546.285C139.916 546.219 139.633 546.244 139.643 546.222C139.67 546.358 139.709 546.492 139.76 546.62C139.837 546.955 139.89 547.295 139.919 547.637C140.032 549.071 139.816 550.512 139.288 551.85C138.7 553.364 137.708 554.687 136.422 555.678C136.207 555.812 136.051 556.024 135.987 556.269C135.923 556.514 135.955 556.775 136.076 556.997C136.206 557.217 136.418 557.376 136.665 557.441C136.911 557.506 137.174 557.471 137.395 557.343C138.945 556.181 140.166 554.636 140.939 552.86C141.711 551.084 142.009 549.137 141.802 547.211C141.689 546.29 141.553 545.087 140.654 544.577C139.668 544.018 138.536 544.718 137.857 545.446C136.551 546.845 136.398 548.793 136.039 550.58C135.558 552.98 134.318 555.277 135.611 557.651C136.206 558.741 137.872 557.769 137.277 556.678V556.674Z" fill="#6C63FF"/>
<path d="M143.041 575.099C143.734 573.971 145.139 573.859 146.33 573.647C147.075 573.526 147.807 573.338 148.518 573.085C149.29 572.797 150.033 572.433 150.812 572.165C151.463 571.874 152.192 571.81 152.884 571.983C152.923 571.996 153.358 572.235 153.375 572.226C153.438 572.193 153.27 571.973 153.284 571.972C153.275 571.972 153.209 572.072 153.193 572.082C152.899 572.284 152.654 572.578 152.36 572.791C151.156 573.655 149.764 574.219 148.298 574.438C146.674 574.691 145.011 574.492 143.492 573.862C143.27 573.741 143.009 573.71 142.764 573.774C142.519 573.838 142.308 573.993 142.173 574.208C142.046 574.429 142.011 574.692 142.075 574.939C142.14 575.186 142.299 575.397 142.519 575.527C144.359 576.32 146.378 576.605 148.365 576.352C150.352 576.099 152.236 575.318 153.819 574.091C154.605 573.472 155.474 572.647 155.146 571.544C154.84 570.523 153.567 570.071 152.612 569.969C150.535 569.748 148.708 571.155 146.753 571.602C144.712 572.069 142.592 572.15 141.379 574.125C140.727 575.186 142.395 576.156 143.045 575.098L143.041 575.099Z" fill="#6C63FF"/>
<path d="M137.978 563.366C137.227 561.619 137.142 559.658 137.74 557.854C138.338 556.05 139.577 554.527 141.221 553.574C141.296 553.531 141.371 553.49 141.447 553.449C141.589 553.425 141.61 553.392 141.511 553.351C141.668 552.82 141.45 553.236 141.393 553.371C141.218 553.779 141.04 554.186 140.86 554.592C140.459 555.498 140.046 556.401 139.622 557.3C138.749 559.149 137.836 560.982 136.838 562.766C136.232 563.851 137.897 564.824 138.504 563.739C139.47 562.009 140.357 560.238 141.205 558.449C141.619 557.573 142.024 556.693 142.419 555.808C142.592 555.419 142.763 555.03 142.933 554.64C143.169 554.223 143.33 553.767 143.408 553.294C143.408 553.036 143.353 552.781 143.248 552.546C143.143 552.311 142.989 552.1 142.797 551.928C142.605 551.756 142.379 551.626 142.133 551.547C141.888 551.468 141.629 551.442 141.372 551.47C140.423 551.716 139.555 552.206 138.852 552.89C137.432 554.075 136.383 555.644 135.83 557.41C135.143 559.702 135.315 562.166 136.313 564.34C136.443 564.56 136.654 564.719 136.901 564.784C137.148 564.849 137.411 564.814 137.632 564.687C137.848 564.553 138.005 564.342 138.069 564.096C138.134 563.85 138.101 563.589 137.978 563.367L137.978 563.366Z" fill="#6C63FF"/>
<path d="M131.078 572.821C129.694 573.442 128.004 572.257 126.763 571.748C125.375 571.179 123.892 571.123 122.475 570.67C121.943 570.526 121.477 570.201 121.158 569.752C121.115 569.661 121.065 569.573 121.008 569.49C121.057 569.501 120.8 569.661 120.911 569.64C121.009 569.62 121.108 569.596 121.208 569.577C121.566 569.52 121.927 569.491 122.29 569.489C123.836 569.468 125.363 569.836 126.73 570.559C128.097 571.282 129.261 572.337 130.113 573.627C130.783 574.667 132.453 573.702 131.779 572.653C130.714 571.014 129.239 569.682 127.499 568.791C125.759 567.9 123.815 567.48 121.863 567.575C120.896 567.637 119.714 567.744 119.217 568.71C118.71 569.697 119.449 570.904 120.185 571.561C121.598 572.822 123.55 572.754 125.27 573.258C126.418 573.594 127.451 574.219 128.58 574.607C129.706 575.026 130.951 574.982 132.045 574.485C132.264 574.355 132.424 574.143 132.489 573.896C132.553 573.649 132.518 573.387 132.391 573.165C132.258 572.949 132.046 572.792 131.801 572.728C131.555 572.664 131.294 572.696 131.072 572.819L131.078 572.821Z" fill="#6C63FF"/>
<path d="M147.938 624.089C147.818 624.143 129.346 624.143 129.466 624.196C122.829 613.202 120.255 603.909 119.403 597.108C119.217 595.55 119.361 593.971 119.829 592.474C120.296 590.976 121.074 589.595 122.113 588.42C123.152 587.245 124.428 586.303 125.857 585.657C127.286 585.01 128.836 584.673 130.404 584.668L147.125 584.57C148.587 584.56 150.036 584.838 151.391 585.389C152.746 585.939 153.979 586.751 155.019 587.778C156.06 588.805 156.889 590.026 157.457 591.373C158.026 592.72 158.324 594.166 158.334 595.628C158.371 603.897 156.522 615.228 147.938 624.089Z" fill="#E6E6E6"/>
<path d="M631.693 372.027C626.019 365.976 619.469 359.62 611.196 359.009C601.618 358.3 593.457 365.487 586.69 372.307C566.451 392.697 547.356 414.191 529.492 436.69L529.573 436.954L579.438 422.706C591.447 419.275 603.85 415.639 613.395 407.581C617.017 404.525 620.38 400.756 624.968 399.568C630.668 398.091 636.539 401.044 641.375 404.404C669.979 424.283 684.802 460.83 715.603 477.087C690.455 439.904 662.397 404.773 631.693 372.027Z" fill="#F2F2F2"/>
<path d="M819.831 552.206C816.559 549.496 815.344 548.959 812.101 546.213C785.69 523.824 760.333 500.266 736.029 475.539C719.52 458.745 703.546 441.448 688.107 423.647C680.759 415.186 673.541 406.619 666.453 397.945C660.954 391.22 655.532 384.432 650.187 377.581C648.66 375.624 647.162 373.65 645.664 371.67C642.141 367.016 638.658 362.328 635.021 357.773C630.876 352.58 626.038 347.241 619.863 344.473C617.038 343.141 613.892 342.64 610.792 343.029C606.382 343.673 602.749 346.32 599.393 349.087C574.844 369.49 552.829 392.762 533.819 418.405C514.754 443.973 498.746 471.683 486.12 500.97C485.736 501.875 484.271 501.4 484.66 500.49C486.194 496.923 487.779 493.379 489.413 489.86C509.748 446.132 537.616 406.32 571.744 372.247C577.486 366.516 583.396 360.961 589.474 355.581C592.538 352.869 595.624 350.178 598.791 347.596C601.898 345.063 605.259 342.665 609.227 341.758C622.741 338.666 633.026 352.529 640.045 361.836C642.251 364.766 644.474 367.681 646.714 370.583C655.187 381.606 663.863 392.468 672.742 403.17C678.222 409.778 683.778 416.324 689.41 422.809C706.94 443.005 725.168 462.568 744.093 481.498C769.164 506.573 793.365 528.288 820.664 550.917C821.421 551.543 820.59 552.842 819.831 552.206Z" fill="#E4E4E4"/>
<path d="M530.866 411.107C529.891 410.396 528.921 409.684 527.942 408.975C520.22 403.389 512.058 397.98 502.629 395.841C498.121 394.761 493.431 394.676 488.886 395.589C484.203 396.601 479.882 398.804 475.918 401.448C474.045 402.701 472.239 404.054 470.478 405.462C468.466 407.075 466.51 408.755 464.566 410.443C460.917 413.611 457.344 416.867 453.844 420.211C446.883 426.867 440.253 433.848 433.955 441.154C430.69 444.942 427.526 448.811 424.463 452.759C421.614 456.428 418.851 460.16 416.175 463.956C415.603 464.765 414.312 463.926 414.886 463.119C415.59 462.114 416.306 461.114 417.023 460.121C419.05 457.319 421.127 454.553 423.252 451.821C427.127 446.833 431.157 441.973 435.342 437.241C441.849 429.879 448.705 422.848 455.908 416.149C459.508 412.803 463.187 409.549 466.945 406.387C468.08 405.432 469.233 404.489 470.408 403.579C473.061 401.448 475.882 399.535 478.842 397.858C483.029 395.448 487.686 393.97 492.497 393.524C497.168 393.22 501.854 393.802 506.309 395.24C515.741 398.162 523.828 404.057 531.703 409.815C532.499 410.399 531.667 411.693 530.866 411.107Z" fill="#E4E4E4"/>
<path d="M718.828 446.051L737.458 434.367L746.709 428.569C749.722 426.68 752.692 424.626 755.887 423.053C758.643 421.592 761.767 420.971 764.873 421.265C767.674 421.674 770.365 422.643 772.784 424.112C775.247 425.571 777.599 427.211 779.82 429.017C782.562 431.177 785.277 433.372 788 435.555C799.238 444.567 810.427 453.639 821.569 462.771C832.71 471.902 843.802 481.093 854.846 490.343C865.916 499.616 876.936 508.948 887.906 518.338C889.25 519.489 890.593 520.64 891.936 521.792C892.679 522.429 893.826 521.401 893.074 520.756C882.015 511.267 870.908 501.836 859.752 492.462C848.566 483.068 837.33 473.734 826.043 464.461C814.756 455.188 803.419 445.976 792.031 436.824C789.195 434.544 786.355 432.269 783.512 429.998C781.114 428.082 778.732 426.136 776.183 424.42C771.505 421.269 765.97 418.782 760.215 419.907C756.831 420.566 753.797 422.332 750.904 424.131C747.788 426.07 744.681 428.031 741.571 429.981L722.809 441.746L718.119 444.689C717.287 445.211 717.986 446.583 718.828 446.055L718.828 446.051Z" fill="#E4E4E4"/>
<path d="M501.819 405.108C490.432 402.014 477.505 405.842 469.473 414.439C488.127 413.719 506.808 414.089 525.419 415.549C517.24 412.835 510.134 407.367 501.819 405.108Z" fill="#F2F2F2"/>
<path d="M469.369 414.443L467.732 416.47C468.281 415.766 468.864 415.091 469.472 414.441L469.369 414.443Z" fill="#F2F2F2"/>
<path d="M432.298 537.298C429.869 537.173 427.439 537.182 425.068 537.334L424.723 537.355C409.004 538.429 397.74 548.775 398.523 561.423L398.671 563.712C398.767 565.158 398.871 566.712 398.964 568.436C399.014 569.287 404.937 614.947 406.001 615L790.5 599C817.836 600.185 843.309 592.34 869.683 593.367C874.634 593.636 879.573 593.544 884.47 593.092C891.773 592.296 900.191 596.544 903.24 593.092C907.03 588.813 903.632 576.863 903.24 570.475C902.445 557.576 901.637 544.027 900.832 530.519C900.118 518.614 899.411 506.74 898.716 495.372C898.293 488.625 897.573 482.652 893.03 477.882C888.106 472.721 879.286 469.779 866.812 469.136L866.359 469.113C827.273 467.286 788.984 483.477 771.084 509.403C769.024 512.386 767.113 515.6 765.266 518.706C762.572 523.483 759.581 528.004 756.314 532.237C754.497 534.516 752.494 536.579 750.33 538.399C750.183 538.533 750.012 538.675 749.835 538.809C749.427 539.155 748.999 539.487 748.582 539.782C746.17 541.582 743.583 543.061 740.866 544.196L740.595 544.307C740.39 544.396 740.169 544.485 739.947 544.565C738.38 545.17 736.779 545.671 735.152 546.065C728.129 547.81 720.098 547.9 711.282 546.333C703.138 544.852 695.104 542.24 687.351 538.553C679.128 534.652 671.403 529.921 663.932 525.341C660.651 523.33 657.257 521.251 653.87 519.273C653.233 518.901 652.607 518.536 651.972 518.172C647.835 515.808 644.091 513.839 640.523 512.152C631.757 507.98 622.624 505.237 613.392 504.003C603.652 502.78 595.118 503.696 588.032 506.718C586.063 507.556 584.164 508.579 582.354 509.779C574.009 515.309 568.99 523.848 564.135 532.101C558.097 542.367 551.855 552.988 539.136 558.003C524.46 563.797 502.738 559.955 487.3 554.425C482.446 552.687 477.593 550.724 472.9 548.825C471.004 548.059 469.107 547.296 467.209 546.539C463.48 545.056 460.429 543.91 457.607 542.93L456.715 542.618C456.219 542.448 455.722 542.278 455.217 542.113C451.868 540.997 448.752 540.093 445.689 539.352L444.961 539.172C443.508 538.84 442.151 538.556 440.819 538.306L440.287 538.208C437.63 537.735 434.963 537.432 432.298 537.298Z" fill="#F2F2F2"/>
<path d="M749.682 354.393C767.568 350.591 778.987 333.008 775.185 315.122C771.383 297.235 753.8 285.817 735.913 289.619C718.027 293.421 706.608 311.003 710.41 328.89C714.212 346.777 731.795 358.195 749.682 354.393Z" fill="#6C63FF"/>
<path d="M799.343 286.93C783.296 284.761 764.976 293.434 760.817 309.083C759.769 306.301 757.863 303.923 755.376 302.294C752.888 300.665 749.947 299.87 746.977 300.022C744.008 300.174 741.164 301.267 738.856 303.141C736.548 305.016 734.895 307.576 734.138 310.452L735.975 311.767C770.363 319.204 805.96 319.043 840.279 311.296C829.117 299.566 815.39 289.099 799.343 286.93Z" fill="#F0F0F0"/>
<path d="M714.34 328.546C698.227 326.938 680.221 336.246 676.611 352.031C675.466 349.286 673.479 346.977 670.936 345.436C668.393 343.895 665.426 343.202 662.463 343.458C659.501 343.714 656.697 344.905 654.455 346.859C652.214 348.813 650.652 351.429 649.995 354.329L651.877 355.58C686.504 361.813 722.075 360.41 756.103 351.469C744.537 340.136 730.453 330.154 714.34 328.546Z" fill="#F0F0F0"/>
<path d="M398.819 516.263L380.551 517.398C378.967 517.482 377.451 518.068 376.223 519.072C374.994 520.076 374.118 521.446 373.721 522.981C373.262 524.862 373.631 526.609 376.303 527.003C376.303 527.003 368.596 529.081 371.448 534.387L367.531 552.935C367.178 554.596 367.174 556.311 367.519 557.973C367.864 559.635 368.55 561.208 369.534 562.591C370.519 563.974 371.779 565.137 373.237 566.008C374.694 566.878 376.317 567.436 378.001 567.647C378.098 567.659 378.195 567.67 378.293 567.68C382.969 568.18 391.276 564.6 392.365 560.025L394.205 535.821L398.82 516.262L398.819 516.263Z" fill="#6C63FF"/>
<path d="M372.595 535.067C371.799 534.819 370.938 534.879 370.184 535.236C369.431 535.593 368.839 536.221 368.528 536.995C367.354 539.911 366.009 544.351 367.566 546.545C367.566 546.545 369.322 547.57 370.261 544.853C371.2 542.137 372.595 535.069 372.595 535.069L372.595 535.067Z" fill="#6C63FF"/>
<path d="M388.54 537.318C383.577 534.143 371.577 534.613 371.458 534.618L371.437 534.155C371.936 534.133 383.705 533.676 388.79 536.927L388.54 537.318Z" fill="white"/>
<path d="M427.721 571.803L416.282 552.847L423.643 551.228L432.295 569.201C433 569.402 433.658 569.741 434.23 570.199C434.803 570.657 435.278 571.225 435.629 571.868C437.019 574.31 436.507 577.222 434.486 578.372C432.466 579.521 429.701 578.474 428.312 576.033C427.938 575.402 427.693 574.703 427.591 573.977C427.49 573.251 427.534 572.512 427.721 571.803Z" fill="#FFB6B6"/>
<path d="M380.16 566.891L379.866 544.752L387.036 547.074L385.422 566.955C385.928 567.485 386.324 568.111 386.586 568.795C386.849 569.479 386.972 570.209 386.949 570.942C386.915 573.751 385.002 576.005 382.678 575.976C380.353 575.947 378.496 573.647 378.531 570.838C378.526 570.105 378.668 569.379 378.947 568.701C379.226 568.023 379.637 567.408 380.157 566.891L380.16 566.891Z" fill="#FFB6B6"/>
<path d="M411.323 650.741L418.306 650.985L418.627 641.781L411.644 641.537L411.323 650.741Z" fill="#FFB8B8"/>
<path d="M409.718 656.14C409.46 655.946 409.246 655.7 409.091 655.418C408.935 655.135 408.841 654.823 408.815 654.502C408.839 654.099 408.946 653.707 409.129 653.348C409.312 652.989 409.567 652.671 409.878 652.415C409.902 652.203 410.212 649.564 410.713 649.107C410.555 648.543 410.619 647.94 410.89 647.421C410.999 647.278 411.14 647.161 411.301 647.08C411.462 646.999 411.64 646.957 411.82 646.956L411.838 646.956L411.847 646.973C411.858 646.994 412.964 649.081 414.731 649.323C415.743 649.462 416.779 648.975 417.809 647.875C417.848 647.792 418.176 646.42 418.388 645.514L418.396 645.477L427.876 650.891L433.467 652.65C433.786 652.75 434.067 652.946 434.272 653.21C434.477 653.475 434.597 653.795 434.615 654.129C434.633 654.464 434.549 654.795 434.373 655.08C434.198 655.365 433.94 655.59 433.633 655.724L430.852 656.944C429.682 657.455 428.413 657.698 427.137 657.655L412.292 657.137C411.345 657.108 410.437 656.757 409.718 656.14Z" fill="#090814"/>
<path d="M383.469 639.72L389.532 642.483L393.173 634.491L387.11 631.729L383.469 639.72Z" fill="#FFB8B8"/>
<path d="M380.085 643.892C379.929 643.628 379.83 643.333 379.796 643.027C379.762 642.722 379.794 642.413 379.888 642.12C380.055 641.774 380.293 641.467 380.585 641.218C380.877 640.968 381.218 640.781 381.585 640.67C381.684 640.491 382.919 638.279 383.528 638.059C383.594 637.504 383.87 636.996 384.298 636.637C384.447 636.551 384.613 636.499 384.785 636.487C384.956 636.474 385.128 636.502 385.288 636.567L385.304 636.572L385.304 636.589C385.303 636.612 385.519 638.855 386.987 639.712C387.829 640.204 388.919 640.153 390.227 639.559C390.289 639.502 391.081 638.411 391.602 637.688L391.623 637.659L398.003 645.888L402.286 649.478C402.531 649.683 402.707 649.957 402.792 650.265C402.876 650.573 402.864 650.899 402.758 651.2C402.652 651.501 402.457 651.762 402.199 651.95C401.94 652.137 401.631 652.241 401.312 652.247L398.415 652.307C397.198 652.33 395.991 652.081 394.882 651.577L381.991 645.705C381.167 645.335 380.495 644.695 380.085 643.891L380.085 643.892Z" fill="#090814"/>
<path d="M419.47 645.121L409.163 644.47L404.821 620.1L404.347 617.441C404.347 617.441 402.4 608.439 398.946 597.549C397.713 593.637 396.281 589.489 394.677 585.425C388.61 570.028 395.762 558.99 395.762 558.99L411.997 558.128L415.874 557.922L417.487 596.96L419.47 645.121Z" fill="#090814"/>
<path d="M417.484 596.962L404.821 620.1L394.686 638.616L386.195 632.736L396.016 607.098C396.016 607.098 397.307 603.314 398.945 597.554C401.123 590.032 402.892 582.397 404.244 574.684C405.188 568.538 407.88 562.792 411.998 558.133L415.874 557.927L417.484 596.962Z" fill="#090814"/>
<path d="M412.787 516.62L402.654 515.281L390.913 537.848L393.553 559.622L415.926 558.433C415.926 558.433 417.405 548.446 419.962 542.354C420.86 540.2 420.894 537.784 420.056 535.606L412.789 516.62L412.787 516.62Z" fill="#E6E6E6"/>
<path d="M404.208 517.798L402.655 515.281C402.655 515.281 398.033 514.369 394.736 520.608C391.438 526.847 376.916 544.42 376.916 544.42L389.541 554.595L404.208 517.798Z" fill="#E6E6E6"/>
<path d="M411.78 517.242L412.787 516.622C412.787 516.622 416.555 516.5 417.329 518.199C418.104 519.898 428.198 549.457 428.198 549.457L413.123 556.348L411.78 517.244L411.78 517.242Z" fill="#E6E6E6"/>
<path d="M401.254 501.96C401.315 500.236 401.851 498.563 402.805 497.127C403.758 495.69 405.091 494.546 406.656 493.821C408.22 493.096 409.955 492.819 411.668 493.02C413.38 493.222 415.003 493.894 416.357 494.962C417.711 496.03 418.742 497.453 419.335 499.072C419.929 500.691 420.063 502.442 419.721 504.133C419.38 505.823 418.577 507.385 417.401 508.646C416.225 509.908 414.722 510.818 413.06 511.277L410.842 523.125L401.921 515.15C403.231 513.546 404.32 511.772 405.159 509.878C403.904 508.984 402.891 507.792 402.209 506.411C401.528 505.029 401.2 503.499 401.254 501.96Z" fill="#FFB6B6"/>
<path d="M397.833 514.105C397.833 514.105 398.153 517.424 402.183 517.672L410.357 518.177C410.357 518.177 404.028 501.102 406.806 503.098C409.584 505.094 417.446 497.409 417.446 497.409L419.537 501.684C419.537 501.684 424.951 499.935 419.192 494.987C419.192 494.987 412.313 489.274 404.694 492.294C397.074 495.314 397.833 514.105 397.833 514.105Z" fill="#090814"/>
<path d="M395.241 517.476C395.241 517.476 408.846 527.436 391.315 550.254L392.274 560.934C392.274 560.934 413.713 530.502 400.43 514.875L395.24 517.475L395.241 517.476Z" fill="#6C63FF"/>
</svg>
